<?xml version="1.0" standalone="no"?><!DOCTYPE svg PUBLIC "-//W3C//DTD SVG 1.1//EN" "http://www.w3.org/Graphics/SVG/1.1/DTD/svg11.dtd"><svg t="1703667004832" class="icon" viewBox="0 0 1024 1024" version="1.1" xmlns="http://www.w3.org/2000/svg" p-id="2322" xmlns:xlink="http://www.w3.org/1999/xlink" width="200" height="200"><path d="M717.770105 485.052632l-170.954105-170.900211a26.947368 26.947368 0 0 1 38.157474-38.157474l215.578947 215.578948A26.893474 26.893474 0 0 1 808.421053 512a26.947368 26.947368 0 0 1-13.581474 23.390316l-209.866105 209.92a26.947368 26.947368 0 0 1-38.157474-38.157474L715.075368 538.947368H296.421053a26.947368 26.947368 0 0 1 0-53.894736h421.349052zM512 1024a512 512 0 1 1 0-1024 512 512 0 0 1 0 1024z m0-53.894737a458.105263 458.105263 0 1 0 0-916.210526 458.105263 458.105263 0 0 0 0 916.210526z" fill="#FE7660" p-id="2323"></path></svg>